<mxfile host="Electron" modified="2024-04-07T15:07:42.085Z" agent="Mozilla/5.0 (Windows NT 10.0; Win64; x64) AppleWebKit/537.36 (KHTML, like Gecko) draw.io/24.1.0 Chrome/120.0.6099.109 Electron/28.1.0 Safari/537.36" etag="RtfXavMtSoSTsoLYWu39" version="24.1.0" type="device">
  <diagram id="nipLAl4oYv_dHEfn-WWW" name="Pagina-1">
    <mxGraphModel dx="782" dy="499" grid="1" gridSize="10" guides="1" tooltips="1" connect="1" arrows="1" fold="1" page="1" pageScale="1" pageWidth="827" pageHeight="1169" math="0" shadow="0">
      <root>
        <mxCell id="0" />
        <mxCell id="1" parent="0" />
        <mxCell id="D1S1ImU1hM3uGuvjBTUR-6" value="" style="ellipse;whiteSpace=wrap;html=1;fontSize=9;fillColor=#f5f5f5;fontColor=#333333;strokeColor=#666666;" parent="1" vertex="1">
          <mxGeometry x="6" y="499" width="90" height="139" as="geometry" />
        </mxCell>
        <mxCell id="D1S1ImU1hM3uGuvjBTUR-2" value="&lt;font style=&quot;font-size: 9px;&quot;&gt;rates_sample.csv&lt;br&gt;&lt;/font&gt;" style="shape=image;html=1;verticalAlign=top;verticalLabelPosition=bottom;labelBackgroundColor=#ffffff;imageAspect=0;aspect=fixed;image=https://cdn3.iconfinder.com/data/icons/cad-database-presentation-spreadsheet-vector-fil-2/512/19-128.png" parent="1" vertex="1">
          <mxGeometry x="36" y="538" width="30" height="30" as="geometry" />
        </mxCell>
        <mxCell id="D1S1ImU1hM3uGuvjBTUR-9" value="" style="ellipse;shape=cloud;whiteSpace=wrap;html=1;fontSize=9;fillColor=#dae8fc;strokeColor=#6c8ebf;gradientColor=#FFFFFF;gradientDirection=radial;" parent="1" vertex="1">
          <mxGeometry x="78" y="384" width="600" height="350" as="geometry" />
        </mxCell>
        <mxCell id="D1S1ImU1hM3uGuvjBTUR-13" value="" style="group" parent="1" vertex="1" connectable="0">
          <mxGeometry x="238" y="474" width="330" height="180" as="geometry" />
        </mxCell>
        <mxCell id="D1S1ImU1hM3uGuvjBTUR-11" value="" style="shape=datastore;whiteSpace=wrap;html=1;fontSize=9;gradientDirection=radial;fillColor=#f5f5f5;fontColor=#333333;strokeColor=#666666;" parent="D1S1ImU1hM3uGuvjBTUR-13" vertex="1">
          <mxGeometry width="330.00000000000006" height="180" as="geometry" />
        </mxCell>
        <mxCell id="D1S1ImU1hM3uGuvjBTUR-12" value="&lt;font style=&quot;font-size: 13px;&quot;&gt;&lt;b&gt;DATA WAREHOUSE&lt;br&gt;&lt;/b&gt;&lt;/font&gt;" style="text;html=1;align=center;verticalAlign=middle;resizable=0;points=[];autosize=1;strokeColor=none;fillColor=none;fontSize=9;" parent="D1S1ImU1hM3uGuvjBTUR-13" vertex="1">
          <mxGeometry x="90" y="3.5999999999999996" width="150" height="30" as="geometry" />
        </mxCell>
        <mxCell id="D1S1ImU1hM3uGuvjBTUR-14" value="" style="endArrow=none;html=1;rounded=0;fontSize=13;exitX=0.202;exitY=0.981;exitDx=0;exitDy=0;exitPerimeter=0;" parent="D1S1ImU1hM3uGuvjBTUR-13" edge="1">
          <mxGeometry width="50" height="50" relative="1" as="geometry">
            <mxPoint x="74.65999999999985" y="176.58000000000004" as="sourcePoint" />
            <mxPoint x="76.60526315789474" y="60" as="targetPoint" />
          </mxGeometry>
        </mxCell>
        <mxCell id="D1S1ImU1hM3uGuvjBTUR-15" value="&lt;font style=&quot;font-size: 7px;&quot;&gt;&lt;b&gt;IMPORT&lt;/b&gt;&lt;font style=&quot;font-size: 7px;&quot;&gt;&lt;b&gt;&lt;br&gt;&lt;/b&gt;&lt;/font&gt;&lt;/font&gt;" style="text;html=1;align=center;verticalAlign=middle;resizable=0;points=[];autosize=1;strokeColor=none;fillColor=none;fontSize=9;rotation=0;" parent="D1S1ImU1hM3uGuvjBTUR-13" vertex="1">
          <mxGeometry x="13.023157894736846" y="58" width="50" height="20" as="geometry" />
        </mxCell>
        <mxCell id="D1S1ImU1hM3uGuvjBTUR-17" value="" style="strokeWidth=2;html=1;shape=mxgraph.flowchart.database;whiteSpace=wrap;fontSize=7;gradientDirection=radial;fillColor=#f5f5f5;fontColor=#333333;strokeColor=#666666;" parent="D1S1ImU1hM3uGuvjBTUR-13" vertex="1">
          <mxGeometry x="11.947368421052632" y="88" width="26.05263157894737" height="25" as="geometry" />
        </mxCell>
        <mxCell id="D1S1ImU1hM3uGuvjBTUR-34" value="&lt;font style=&quot;font-size: 7px;&quot;&gt;&lt;b&gt;CLEANING&lt;/b&gt;&lt;/font&gt;" style="text;html=1;align=center;verticalAlign=middle;resizable=0;points=[];autosize=1;strokeColor=none;fillColor=none;fontSize=9;" parent="D1S1ImU1hM3uGuvjBTUR-13" vertex="1">
          <mxGeometry x="72.9442105263158" y="60" width="60" height="20" as="geometry" />
        </mxCell>
        <mxCell id="D1S1ImU1hM3uGuvjBTUR-33" value="&lt;font style=&quot;font-size: 7px;&quot;&gt;&lt;b&gt;STAGING AREA&lt;br&gt;&lt;/b&gt;&lt;/font&gt;" style="text;html=1;align=center;verticalAlign=middle;resizable=0;points=[];autosize=1;strokeColor=none;fillColor=none;fontSize=9;" parent="D1S1ImU1hM3uGuvjBTUR-13" vertex="1">
          <mxGeometry x="152.26000000000002" y="60" width="80" height="20" as="geometry" />
        </mxCell>
        <mxCell id="D1S1ImU1hM3uGuvjBTUR-39" value="" style="strokeWidth=2;html=1;shape=mxgraph.flowchart.database;whiteSpace=wrap;fontSize=7;gradientDirection=radial;fillColor=#f5f5f5;fontColor=#333333;strokeColor=#666666;" parent="D1S1ImU1hM3uGuvjBTUR-13" vertex="1">
          <mxGeometry x="170.94736842105263" y="87" width="28.657894736842106" height="25" as="geometry" />
        </mxCell>
        <mxCell id="D1S1ImU1hM3uGuvjBTUR-40" value="" style="strokeWidth=2;html=1;shape=mxgraph.flowchart.database;whiteSpace=wrap;fontSize=7;gradientDirection=radial;fillColor=#f5f5f5;fontColor=#333333;strokeColor=#666666;" parent="D1S1ImU1hM3uGuvjBTUR-13" vertex="1">
          <mxGeometry x="210.97368421052633" y="100" width="26.05263157894737" height="17" as="geometry" />
        </mxCell>
        <mxCell id="D1S1ImU1hM3uGuvjBTUR-41" value="" style="strokeWidth=2;html=1;shape=mxgraph.flowchart.database;whiteSpace=wrap;fontSize=7;gradientDirection=radial;fillColor=#f5f5f5;fontColor=#333333;strokeColor=#666666;" parent="D1S1ImU1hM3uGuvjBTUR-13" vertex="1">
          <mxGeometry x="176.94736842105263" y="121" width="26.05263157894737" height="17" as="geometry" />
        </mxCell>
        <mxCell id="D1S1ImU1hM3uGuvjBTUR-51" value="" style="aspect=fixed;perimeter=ellipsePerimeter;html=1;align=center;shadow=0;dashed=0;spacingTop=3;image;image=img/lib/active_directory/database_cube.svg;labelBackgroundColor=#FFCE9F;fontSize=9;fontColor=#000000;fillColor=none;gradientColor=#FFFFFF;gradientDirection=radial;" parent="D1S1ImU1hM3uGuvjBTUR-13" vertex="1">
          <mxGeometry x="280" y="128.47" width="30" height="33.34" as="geometry" />
        </mxCell>
        <mxCell id="D1S1ImU1hM3uGuvjBTUR-36" value="" style="strokeWidth=2;html=1;shape=mxgraph.flowchart.database;whiteSpace=wrap;fontSize=7;gradientDirection=radial;fillColor=#f5f5f5;fontColor=#333333;strokeColor=#666666;" parent="D1S1ImU1hM3uGuvjBTUR-13" vertex="1">
          <mxGeometry x="126" y="106" width="30" height="24" as="geometry" />
        </mxCell>
        <mxCell id="D1S1ImU1hM3uGuvjBTUR-37" value="" style="strokeWidth=2;html=1;shape=mxgraph.flowchart.database;whiteSpace=wrap;fontSize=7;gradientDirection=radial;fillColor=#f5f5f5;fontColor=#333333;strokeColor=#666666;" parent="D1S1ImU1hM3uGuvjBTUR-13" vertex="1">
          <mxGeometry x="90" y="122" width="33" height="25" as="geometry" />
        </mxCell>
        <mxCell id="D1S1ImU1hM3uGuvjBTUR-50" value="" style="strokeWidth=2;html=1;shape=mxgraph.flowchart.database;whiteSpace=wrap;fontSize=7;gradientDirection=radial;fillColor=#f5f5f5;fontColor=#333333;strokeColor=#666666;" parent="D1S1ImU1hM3uGuvjBTUR-13" vertex="1">
          <mxGeometry x="266" y="102" width="33" height="25" as="geometry" />
        </mxCell>
        <mxCell id="D1S1ImU1hM3uGuvjBTUR-48" value="" style="strokeWidth=2;html=1;shape=mxgraph.flowchart.database;whiteSpace=wrap;fontSize=7;gradientDirection=radial;fillColor=#f5f5f5;fontColor=#333333;strokeColor=#666666;" parent="D1S1ImU1hM3uGuvjBTUR-13" vertex="1">
          <mxGeometry x="260" y="81" width="30" height="17" as="geometry" />
        </mxCell>
        <mxCell id="D1S1ImU1hM3uGuvjBTUR-21" value="" style="strokeWidth=2;html=1;shape=mxgraph.flowchart.database;whiteSpace=wrap;fontSize=7;gradientDirection=radial;fillColor=#f5f5f5;fontColor=#333333;strokeColor=#666666;" parent="1" vertex="1">
          <mxGeometry x="265" y="590" width="30" height="25" as="geometry" />
        </mxCell>
        <mxCell id="D1S1ImU1hM3uGuvjBTUR-22" value="" style="shape=flexArrow;endArrow=classic;html=1;rounded=0;fontSize=7;fillColor=#f8cecc;strokeColor=#b85450;endWidth=13.387755102040817;endSize=7.825000000000001;width=19.166666666666668;entryX=0;entryY=0.556;entryDx=0;entryDy=0;entryPerimeter=0;" parent="1" edge="1">
          <mxGeometry width="50" height="50" relative="1" as="geometry">
            <mxPoint x="101" y="574" as="sourcePoint" />
            <mxPoint x="231" y="574.0799999999999" as="targetPoint" />
          </mxGeometry>
        </mxCell>
        <mxCell id="D1S1ImU1hM3uGuvjBTUR-27" value="&lt;b&gt;Extraction&lt;/b&gt;" style="text;html=1;align=center;verticalAlign=middle;resizable=0;points=[];autosize=1;fillColor=none;fontSize=9;" parent="1" vertex="1">
          <mxGeometry x="120" y="563" width="70" height="20" as="geometry" />
        </mxCell>
        <mxCell id="D1S1ImU1hM3uGuvjBTUR-30" value="" style="endArrow=none;html=1;rounded=0;fontSize=13;" parent="1" edge="1">
          <mxGeometry width="50" height="50" relative="1" as="geometry">
            <mxPoint x="400" y="654" as="sourcePoint" />
            <mxPoint x="400" y="537" as="targetPoint" />
          </mxGeometry>
        </mxCell>
        <mxCell id="D1S1ImU1hM3uGuvjBTUR-35" value="" style="strokeWidth=2;html=1;shape=mxgraph.flowchart.database;whiteSpace=wrap;fontSize=7;gradientDirection=radial;fillColor=#f5f5f5;fontColor=#333333;strokeColor=#666666;" parent="1" vertex="1">
          <mxGeometry x="325" y="570" width="30" height="15" as="geometry" />
        </mxCell>
        <mxCell id="D1S1ImU1hM3uGuvjBTUR-38" value="" style="endArrow=none;html=1;rounded=0;fontSize=13;" parent="1" edge="1">
          <mxGeometry width="50" height="50" relative="1" as="geometry">
            <mxPoint x="486.9999999999999" y="652" as="sourcePoint" />
            <mxPoint x="486.9999999999999" y="535" as="targetPoint" />
          </mxGeometry>
        </mxCell>
        <mxCell id="D1S1ImU1hM3uGuvjBTUR-43" value="" style="strokeWidth=2;html=1;shape=mxgraph.flowchart.database;whiteSpace=wrap;fontSize=7;gradientDirection=radial;fillColor=#f5f5f5;fontColor=#333333;strokeColor=#666666;" parent="1" vertex="1">
          <mxGeometry x="443" y="612" width="30" height="17" as="geometry" />
        </mxCell>
        <mxCell id="D1S1ImU1hM3uGuvjBTUR-45" value="&lt;font style=&quot;font-size: 7px;&quot;&gt;&lt;b&gt;DATA MART &lt;/b&gt;&lt;/font&gt;" style="text;html=1;align=center;verticalAlign=middle;resizable=0;points=[];autosize=1;strokeColor=none;fillColor=none;fontSize=9;" parent="1" vertex="1">
          <mxGeometry x="499.99636363636364" y="530" width="60" height="20" as="geometry" />
        </mxCell>
        <mxCell id="D1S1ImU1hM3uGuvjBTUR-49" value="" style="strokeWidth=2;html=1;shape=mxgraph.flowchart.database;whiteSpace=wrap;fontSize=7;gradientDirection=radial;fillColor=#f5f5f5;fontColor=#333333;strokeColor=#666666;" parent="1" vertex="1">
          <mxGeometry x="533" y="561" width="30" height="17" as="geometry" />
        </mxCell>
        <mxCell id="D1S1ImU1hM3uGuvjBTUR-66" value="" style="shape=flexArrow;endArrow=classic;html=1;rounded=0;fontSize=7;fillColor=#f8cecc;strokeColor=#b85450;endWidth=13.387755102040817;endSize=7.825000000000001;width=19.166666666666668;entryX=0;entryY=0.556;entryDx=0;entryDy=0;entryPerimeter=0;" parent="1" edge="1">
          <mxGeometry width="50" height="50" relative="1" as="geometry">
            <mxPoint x="578" y="576" as="sourcePoint" />
            <mxPoint x="708" y="576.0799999999999" as="targetPoint" />
          </mxGeometry>
        </mxCell>
        <mxCell id="D1S1ImU1hM3uGuvjBTUR-67" value="&lt;b&gt;Consultation&lt;/b&gt;" style="text;html=1;align=center;verticalAlign=middle;resizable=0;points=[];autosize=1;fillColor=none;fontSize=9;" parent="1" vertex="1">
          <mxGeometry x="592" y="565" width="80" height="20" as="geometry" />
        </mxCell>
        <mxCell id="D1S1ImU1hM3uGuvjBTUR-72" value="" style="ellipse;whiteSpace=wrap;html=1;fontSize=9;fillColor=#f5f5f5;fontColor=#333333;strokeColor=#666666;" parent="1" vertex="1">
          <mxGeometry x="708" y="438" width="112" height="310" as="geometry" />
        </mxCell>
        <mxCell id="D1S1ImU1hM3uGuvjBTUR-76" value="&lt;font style=&quot;font-size: 8px;&quot;&gt;&lt;b&gt;Data Mining&lt;br&gt;&lt;/b&gt;&lt;/font&gt;" style="text;html=1;align=center;verticalAlign=middle;resizable=0;points=[];autosize=1;strokeColor=none;fillColor=none;fontSize=9;fontColor=#000000;" parent="1" vertex="1">
          <mxGeometry x="725" y="477" width="70" height="20" as="geometry" />
        </mxCell>
        <mxCell id="D1S1ImU1hM3uGuvjBTUR-78" value="" style="group" parent="1" vertex="1" connectable="0">
          <mxGeometry x="741" y="441" width="47" height="47" as="geometry" />
        </mxCell>
        <mxCell id="D1S1ImU1hM3uGuvjBTUR-75" value="" style="shape=image;html=1;verticalAlign=top;verticalLabelPosition=bottom;labelBackgroundColor=#ffffff;imageAspect=0;aspect=fixed;image=https://cdn0.iconfinder.com/data/icons/world-issues/500/pickaxe-128.png;fontSize=9;fontColor=#000000;fillColor=none;gradientColor=#FFFFFF;gradientDirection=radial;" parent="D1S1ImU1hM3uGuvjBTUR-78" vertex="1">
          <mxGeometry width="47" height="47" as="geometry" />
        </mxCell>
        <mxCell id="D1S1ImU1hM3uGuvjBTUR-77" value="" style="shape=image;html=1;verticalAlign=top;verticalLabelPosition=bottom;labelBackgroundColor=#ffffff;imageAspect=0;aspect=fixed;image=https://cdn0.iconfinder.com/data/icons/thin-line-icons-for-seo-and-development-1/64/Programming_Development_analysis-128.png;fontSize=8;fontColor=#000000;fillColor=none;gradientColor=#FFFFFF;gradientDirection=radial;" parent="D1S1ImU1hM3uGuvjBTUR-78" vertex="1">
          <mxGeometry x="4" y="20" width="20" height="20" as="geometry" />
        </mxCell>
        <mxCell id="D1S1ImU1hM3uGuvjBTUR-81" value="" style="group" parent="1" vertex="1" connectable="0">
          <mxGeometry x="766" y="523" width="40" height="39" as="geometry" />
        </mxCell>
        <mxCell id="D1S1ImU1hM3uGuvjBTUR-71" value="" style="shape=image;html=1;verticalAlign=top;verticalLabelPosition=bottom;labelBackgroundColor=#ffffff;imageAspect=0;aspect=fixed;image=https://cdn3.iconfinder.com/data/icons/finance-152/64/9-128.png;fontSize=9;fontColor=#000000;fillColor=none;gradientColor=#FFFFFF;gradientDirection=radial;" parent="D1S1ImU1hM3uGuvjBTUR-81" vertex="1">
          <mxGeometry x="7" y="2" width="25" height="25" as="geometry" />
        </mxCell>
        <mxCell id="D1S1ImU1hM3uGuvjBTUR-80" value="&lt;font style=&quot;font-size: 6px;&quot;&gt;&lt;b&gt;&lt;font style=&quot;font-size: 6px;&quot;&gt;Report&lt;/font&gt;&lt;/b&gt;&lt;/font&gt;" style="text;html=1;align=center;verticalAlign=middle;resizable=0;points=[];autosize=1;strokeColor=none;fillColor=none;fontSize=8;fontColor=#000000;" parent="D1S1ImU1hM3uGuvjBTUR-81" vertex="1">
          <mxGeometry y="19" width="40" height="20" as="geometry" />
        </mxCell>
        <mxCell id="D1S1ImU1hM3uGuvjBTUR-82" value="" style="group" parent="1" vertex="1" connectable="0">
          <mxGeometry x="721" y="524" width="50" height="40" as="geometry" />
        </mxCell>
        <mxCell id="D1S1ImU1hM3uGuvjBTUR-69" value="" style="shape=image;html=1;verticalAlign=top;verticalLabelPosition=bottom;labelBackgroundColor=#ffffff;imageAspect=0;aspect=fixed;image=https://cdn1.iconfinder.com/data/icons/icons-for-a-site-1/64/advantage_diagram-128.png;fontSize=9;fontColor=#000000;fillColor=none;gradientColor=#FFFFFF;gradientDirection=radial;" parent="D1S1ImU1hM3uGuvjBTUR-82" vertex="1">
          <mxGeometry x="12" width="30" height="30" as="geometry" />
        </mxCell>
        <mxCell id="D1S1ImU1hM3uGuvjBTUR-79" value="&lt;font style=&quot;font-size: 6px;&quot;&gt;&lt;b&gt;&lt;font style=&quot;font-size: 6px;&quot;&gt;Dashboard&lt;/font&gt;&lt;/b&gt;&lt;/font&gt;" style="text;html=1;align=center;verticalAlign=middle;resizable=0;points=[];autosize=1;strokeColor=none;fillColor=none;fontSize=8;fontColor=#000000;" parent="D1S1ImU1hM3uGuvjBTUR-82" vertex="1">
          <mxGeometry y="20" width="50" height="20" as="geometry" />
        </mxCell>
        <mxCell id="D1S1ImU1hM3uGuvjBTUR-85" value="" style="rounded=0;whiteSpace=wrap;html=1;labelBackgroundColor=#FFCE9F;fontSize=6;fontColor=#000000;fillColor=none;gradientColor=#FFFFFF;gradientDirection=radial;" parent="1" vertex="1">
          <mxGeometry x="725" y="521" width="80" height="40" as="geometry" />
        </mxCell>
        <mxCell id="D1S1ImU1hM3uGuvjBTUR-83" value="" style="shape=image;verticalLabelPosition=bottom;labelBackgroundColor=default;verticalAlign=top;aspect=fixed;imageAspect=0;image=data:image/jpeg,/9j/4AAQSkZJRgABAQEAYABgAAD/2wBDAAIBAQIBAQICAgICAgICAwUDAwMDAwYEBAMFBwYHBwcGBwcICQsJCAgKCAcHCg0KCgsMDAwMBwkODw0MDgsMDAz/2wBDAQICAgMDAwYDAwYMCAcIDAwMDAwMDAwMDAwMDAwMDAwMDAwMDAwMDAwMDAwMDAwMDAwMDAwMDAwMDAwMDAwMDAz/wAARCACqAhcDASIAAhEBAxEB/8QAHwAAAQUBAQEBAQEAAAAAAAAAAAECAwQFBgcICQoL/8QAtRAAAgEDAwIEAwUFBAQAAAF9AQIDAAQRBRIhMUEGE1FhByJxFDKBkaEII0KxwRVS0fAkM2JyggkKFhcYGRolJicoKSo0NTY3ODk6Q0RFRkdISUpTVFVWV1hZWmNkZWZnaGlqc3R1dnd4eXqDhIWGh4iJipKTlJWWl5iZmqKjpKWmp6ipqrKztLW2t7i5usLDxMXGx8jJytLT1NXW19jZ2uHi4+Tl5ufo6erx8vP09fb3+Pn6/8QAHwEAAwEBAQEBAQEBAQAAAAAAAAECAwQFBgcICQoL/8QAtREAAgECBAQDBAcFBAQAAQJ3AAECAxEEBSExBhJBUQdhcRMiMoEIFEKRobHBCSMzUvAVYnLRChYkNOEl8RcYGRomJygpKjU2Nzg5OkNERUZHSElKU1RVVldYWVpjZGVmZ2hpanN0dXZ3eHl6goOEhYaHiImKkpOUlZaXmJmaoqOkpaanqKmqsrO0tba3uLm6wsPExcbHyMnK0tPU1dbX2Nna4uPk5ebn6Onq8vP09fb3+Pn6/9oADAMBAAIRAxEAPwD9AKKKK/xzP6MCiiigAooooAKKKKACiiigAooooAKKKKACiiigAooooAKKKKACiiigAooooAKKKKACiiigAooooAKKKKACiiigAooooAKKKKACiiigAooooAKKKKACiiigAooooAKKKKACiiigAooooAKKKKACiiigAooooAKKKKACiiigAooooAKKKKACiiigAooooAKKKKACim76dQAUUUUAFFFFABRRRQAUUUUAFFFFABRRRQAUUUUAFFFFABRRRQAUUUUAFFFFABRRRQAUUUUAFFFFABRRRQAUUUUAFFFFABRRRQAUUUUAFFFFABRRRQAUUUUAFFFFABRRRQAUUUUAFFFFABRRRQAUUUUAFFFFABRRRQAUUUUAFFFFABWT448c6L8M/B+oeIPEWq2Gh6HpMJnvL69lEUNugwMlj3JIAA5JIABJArWr8kP+DhD9orVte+N3h34WWk0q6DoGmw6zeW0bf8ft/OXEZcfxeXEF2A9DM57g1994a8Ey4qzyGWc/JCzlOXVRjvbzd7L110PLzjMlgcM69rvZLzZ9F+M/+DgD4JeHvEMlnpmk+PPENpG237fa6fDDBLz95FmmSQr/ALyqfavWvgX/AMFWfgL8exDDp3j6w0LUZsYsPEaHSZwT2DSHyWPskjV4r8AP+CB/wr0P4R2MPxFOveIPGV7arJf3Fpqr2dtp0zKCYrdI+GCHK75d+4gttUEKPNfjh/wbpLLHJP8ADX4ie8eneJ7TIPt9qtx/OH6n1/WK2S+EeKqSy2jiq1CcXyqpK7jJrS+zVvXl+48OOJz6nFVZQjJPot0fp5byrd2sdxCyS28wDRyowaOQHoQw4I9xShs1+HF1+zB+19/wT0uJrvQLXxzpel27bnufC142q6XKB/FJBGXXb/11iH6V6H8Ef+Dg74n+B5ksvH3hnw342gtz5c00AOkaguOu4oGh3e3lL9a8/H/R7x9ek8Vw1jKWMp7q0uWX6q/zNqPFVKL5MXTlTfpdH7CBs0tfH/wP/wCC4XwG+Lnk2+rarrHgDUZCAY9es/8ARsn0uIS6Ae77K+qvBPjrQ/iXoSap4b1nSfEWmSAFbvTLyO7hOenzxkjPsTX4/nvBueZNPkzPCzp+bi7fKSVn8me/hcdh8Qr0ZpmtRSZxS5r5nyOsKKKKACiiigAooooAKKKKACiiigAooooAKKKKACiiigAooooAKKKKACiiigAooooAKKKKACiiigAooooAKKKKACiiigAooooAKKKKACiiigAooooAKKKKACiiigAooooAKKKKACiiigAooooAKKKKACiiigAr8R/+C3rbv+Clurg/9AzRh/5ASv24r8Rf+C3n/KS7Vv8AsG6P/wCiEr+hfo1/8lNX/wCvFT84nyfGP+5R/wAS/U/byUYkb61HjFSS/wCsb602vwDE61Z37v8AM+qh8KAOUbcrMrA5BHBrzv42/sj/AAv/AGjomHjfwH4b8RTMMfa57MR3qf7txHtmX8Hr0SiujAZli8DVVbB1ZU5LrFuL+9WJqUYVFaok15n58fHL/g3n+Hfi1prn4f8Ai7xF4NuWyVtNQVdVsh7AkpMo9zI/0r5S8bf8Eiv2mv2T9ek1zwUs2s/Z/mGpeCtYkivNvvCfKnP0UOPrzX7aEZpvOa/YMi8fuKcDD2GMnHE0+sakU21/iVn99zwcVwvgqr56acJd4ux+Kvw8/wCCzf7Rn7NeurofjdYfEj2vyy6f4t0p7PUVA4P71BFLn/akD+vPf6y+CP8AwcF/C/xo0Nr448N+JPAt42Fe5h26tYA+pZAsyj/tk2PXqa+3viH8NPDfxc0I6X4r8PaJ4m04jH2bVbGK8jH0EinH1GDXyX8bP+CEvwP+KCzT+H4de+HuoSZKtpN39oswfe3uN/Hsjp+FfTPjbw34hXLnmWvCVHvOi/dv3srf+kM4v7PzjCP/AGasqke0v6/U+l/g3+038O/2hrRZfA/jbw14oLLvMFjeq10g/wBuBsSp/wACQV2+dpr8c/jN/wAEBPi78NbxtQ8C674f8cQ253wrFOdJ1NMdMLIfLz9Js+3pxemftr/tafsD3sOn+KLzxjZ2MJCJZeM9Pe/s5QP4Y7iTLY/65TAVFTwRyfOI+14RzanWb2hN8svTTX/yVepUeIq+HfLj6Dj5rVfr+Z+4JbFKDkV+ZnwQ/wCDirTbsw2vxI+Ht1ZseJNR8NXQuIz7/ZpyrAfSZj7V9+fAH9ozwX+1B8P4vE3gTXrXXtJZ/KlaMGOa0lxkxTRMA8bgc4YDIwRkEGvynivw14j4cXPmuGcYbc6tKH3pu3zse3gc3wmL0oTu+2z+47eigGivhD0gooooAKKKKACijdzRQAUUUgOTQAtFGaAc0AFFFFABRRRQAUUUUAFFFFABRRRQAUUUUAFFFFABRRRQAUUUUAFFFFABRRRQAUUUUAFFJuo3UDsxaKTdRu5oELRRRQAUUhbBozQAtFAORRQAUUUUAFFFFABRRRQAUUUUAFfiL/wW8/5SXat/2DdH/wDRCV+3VfiL/wAFvT/xsv1b/sG6P/6ISv6F+jZ/yUtf/rxU/OJ8nxj/ALlH/HH9T9vJf9Y31ptOlOZG+tNr8AxH8WXq/wAz6qHwoKKKM81iUFFIWoDZNAAWoDV+Z/8AwVG/4LC+Mfg38cNT+GnwtksNJl8NlItZ1ue0S6nkuWRXaCBJAURYwwVmKli+4DaBloP+CX3/AAWK8afFn456T8N/ipJY61/wlEhttI1uC0S1uLe6CsyQzJGFjdJNpUMFDK5XO4H5f2SPgXxM8g/1gUY8nLz8nN7/ACWve1rba25rnz/+suCWK+qtu97Xtpc/TYLUeo2MOr6dLZ3kMN5ZzrtlgnjWWKUejIwIYexFTL0or8ep1JwkpQbTXVaH0EopqzPmH9oD/gkF8Cfj5YXrL4RtvBmtXKt5eq+HP9CMMh6O1uv7iTnkgoCRxuBwR+dP/BNbxn4k/Ye/4Khp8Or27EltqmuTeCtehhY/Z7tw7pBOo9VmCMp6hXcfxHP7ZE81+JerlR/wXok/7K4vb/p7Ff1H4M8RZjneW5rkmbVXWoKhKSU3zWautG9fO3fVHxfEGEpYetQxFGKjLmS000P22FFDfeb6miv5ZPtAooooAKKKKAPGP+ChvjnWPhp+w98TvEHh/U73R9a0nRjcWd9aSGOa2kEsY3Iw6HBI/GvxSP8AwUj/AGgP+iyfEID/ALCz8V+y/wDwVHG3/gnf8Xv+wA3/AKOir8IPg9Zxah8YPB9vcRRz29xrthHLFIoZJEa5jDKwPBBBwQeor+1Po3ZZl1fhrF4nG4eFRwqv4oxbsoRdk2mfnPF9atHF04U5NXXRtdbHov8Aw8r+Pn/RaPH3/g4eun8B/wDBXL9orwDdxyw/EzVNYjU5MGs21vqEcg9CZEL47cMD71+2Vx+yR8J1uJB/wq34c8MR/wAi1Zf/ABuvCf2s/wDgjr8I/wBoTwVqH/CM+G9K8A+MvKZtN1HR4vstq02DsS4gX920bHhmVQ4ByDxg44Hxs4Ex2Ijg8blUacJOzk4U2lfS7SV7ea2Kq8N5pSh7SlXu1ra7/wCGPPf+Cf8A/wAFt9G/aN8U6d4L+JGmWHhDxZqUi2+n6laSN/ZWqTHhYiJCWt5WPC7mZHPGVJVT96k4Yj061/MVrejXfhvWrzTb6GSz1DTbmS1uYicPBNG5R19irKR+Ff0Bf8E2/j3fftLfsS+A/FWrTNc61JaPp2pTMfmuLi1le3eVv9qTyw593NfG+PfhVluRUqWe5KuSjUlyyitk2rpx7JpO66PY9LhbO62KlLC4nWUdn187nugORRTQaeY2ELSFSsa9XPCj6npX8yxjKT5Yq78tT7K9ldiUVHaXcd++23lhnb+7HIHP5CpCGXqpq6lCpTdqkWvVNExkpfCwopM08ROf4G/Ks4xb2KG0UEMp+ZSv1pN1LXYBaKUIzDIViPYUjBl6jH1quWVr2AKKM04RSMPlRmHsKSi3sA2ihso2CCD6Gkzk0OLTswFopLhvskPmTbYY84Dudqn8TxRA4uoGlhZZolOC8bblH4jitPYVOT2nK+XvbT79ieaN7XFopN3NL1NZFBRQIHI+4x/4CeaCrIdu056YquSS3QaBRTzbyDOY3G0ZIx0HrTKJU5R+JNCUk9goooqRn5o/8F1P2pviR+z98Y/h7Y+BvHHiTwpZ6loVxcXUOmXjQJcSLclQ7AdSF4r4Zf8A4KU/H6L73xl8fL9dWYV9Vf8ABxl/yXr4Y/8AYuXX/pWao/8ABvf4G0Pxz8XPidHrmh6Nrcdtodm8KajYxXawsbhgSokUhSRxkV/fHBssmyjw0oZ9jMFCs6cG3eMeaXv8u7T79T8wzBV8RnM8LTqON33dlpc+Yk/4KXfH4spX4y+PGYc4/tVm/SvWfgh/wXG+O3wt1iH+39W034gaSrAS2er2ccM7L32XECo6tjoXDj1U1+wWu/svfDHxTpr2epfDfwBeWsgw0cvh60IIP/bPI/CvyL/4LNfsJ+F/2PPiz4Z1bwPbtp3hjxxBct/ZbStKum3Vu0fmCJmy3lOsqMFJO1lcZxtA4eDePOB+NMZ/YdbK40pzTcbxg07K7tKKTTt6GmYZXmWX0/rUazklvq/yZ+qP7Gf7Z/g/9t/4VDxN4Vee1uLORbbVdJuiv2vSZyCQj44ZGAJSRflcA9CrKvrg61+Lv/BA7xzqHhv9uiTRbeRxpvibw7exXsQPysYNs8TkeqsrKD2EjDua/aFPvf59a/mjxg4Jw/C3Ec8vwbvSkozinulK65fOzT17WPssgzGWNwirVPiu0/O3X5n41/8ABUf9uD4xfCX9vz4jeHPC/wAS/GGg6Dpc1gtpYWWoNFb24fTbSR9q9Bl3Zj7sa+vv+CG3x38aftAfs6+MdT8ceKNa8VajY+JTaW9xqVwZpIYvssLbFJ6LuYnHqTX53/8ABYkf8bMPip/18ad/6abKvuX/AIN1v+TWvHn/AGNx/wDSO3r+ifE3Jcvo+F1HFUaEI1HCheSilLVRvra+t9T5HKcRVlncqbk7XlpfQ/QMcCiiiv4jP0cKKKKACiiigAooooAKKKKACvyF/wCCwn7KfxH+Jv8AwUes77w54N8Ra5p/iqy0uCwvbKxkmtfMiURSLJKoKRFGUlt5GFIbpzX69Zqlq3ibT/DHk/2jqmn6YLptsX2q7SDzz6LuI3H6Zr7/AMOeNMXw1mc8dgqKrSlTlDld9pddE3o0eXm2X08ZRVOrLlSady/L/rW+vam5yaUo2M/3vmHPUGvzc/4Lcf8ABRHxt8DPHGkfC3wBqt14ZuLrS01bWtXtDsvGWWR0it4ZOsYxEzsyYY71AIAYHj4L4Nx3FWcLK8HaM5XlJyvaKW7a302t3NMxzClgcP7arttp1P0iYFDhlIPuK89/ap+P9n+yz+zr4u+IF9atfReGbHzorUNt+13DukMERPZWlkjBI5CkntX4w/sff8FUfit+zv8AF3S73WvGXiLxf4RuLqNNZ0rWb2S/WS3ZgryQtKWaKZF+ZSpAJUBgQa/UT/gsqVH/AATZ+Je07l26dg+o/tK0r7/OPB/E8OcT5dlmZyjVo4mpBXjdXXNFSi09U9V5O55eHz6GMwVWtQTjKCej9G0flX4p/wCCtn7Q/ivxw2vL8StW0pjJ5ken6dHFDp0AzwggKlXUdMyb2I6knmv1i/4JgftrXX7cP7Nv9vaza2tp4p0C/bSNZW2XbDPKqJIlwi87RIkgyvQOrgcYr8ER0r9bP+Dc4/8AGPnxK/7GeH/0jSv6C8fuCcjw3CUsVhMNCnOlKCi4xUXZuzTtumn1ufJ8K5niZ4/2dSbaae7PgP8A4KWuF/4KCfGH28T3Q6e4rP8A+Cfb5/br+D//AGN+nf8Ao9avf8FMTn/goJ8Yv+xnuf5is/8A4J9/8n1/B/8A7G/Tv/R61+uYW/8AqbG//QMv/TaPDqP/AIUn/j/U/oeHSihelFf5Xn7YNxz+dfiTrP8Aynpf/sri/wDpWK/bb+KvxJ1n/lPS/wD2Vxf/AErFf0Z9Hv8Ai5r/ANg8vzZ8nxT/AMw/+NH7cN95vqaKG+831NFfzmfWBRRRQAUUUUAeB/8ABUn/AJR3fF7/ALALf+joq/CP4JHPxs8Ff9jBp3/pVHX7uf8ABUn/AJR3fF7/ALALf+joq/BHwJ4jXwd460LWZImuE0fUba/aJW2tKIpVkKg9iduM9s1/cX0Z6cp8J46Ed3Ukl6+zjb8T834ykljqUn0S/wDSmf02Xb/6XJ/vn+tRrMtsfMkkSKOP5nd22qijkkk9ABzmvzhuP+Dj/wAKyyOy/CPxJ8xJGdetx+f7mvnX9s//AILa+Pv2n/A9/wCE/Dui2vw/8M6rGYNQa3vGu9Rv4jw0TTbUWONhwwRAWGQW2kg/iOTfR94vxmNjTxVBUad/elKUXZX1sk22+23mfR4jirL6dJypz5pdlf8AVI+W/wBonxnY/Eb9obx94g01lbTdc8R6jqFoyjAeGW6kdGH1Ug/jX7M/8EQvDNz4a/4JzeE5LmNo/wC2NQ1LUIVYdY2unjU/Q+UT+NfkR+x1+yB4p/bU+M1l4S8M28kdsHWTVtVaMm30W1zhpZD03YyETOXbAHGSP28/aU8baf8AsD/sD6/feF4Vs7fwD4dj0zQYmO7y5zstrZmz95hI6u2epDHvX7h9IDMMPWweA4MwMlKvUnDT+WKXKm+zbf3I+a4VpTjUq5lU0ik/n1Pmv/gp3/wWSb9nnxPqHw7+FaWGoeMLA+TrGt3EYntdFk7wQx/dluF/iLZSM8FXbIX8yfE/xR+Kn7WXjEQ6lrXjr4ha3cZdbNJbm/cA9dlvHkIvsihR7VyPhvw9qnxK8a6fpNm0l/rniTUIrOBpXy11dXEoRSzHklnfJJ9Sa/oU/Y9/ZE8LfsU/CCx8KeGLWH7WI1Or6sIgt1rVzj55ZH6ld2diZwi4A7k92eYzh3wnyihRw2GVbFVFu7Xk1bmk5WbUbuyS/wCCZ4WOLzyvKUp8tNfh5I/Azxl8A/iN8EbWPVde8G+OvCNuGGy+u9LurKNSeR+9KgA+nOa99/Y5/wCCwfxU/Zk1+ztde1jUviJ4L3hbnTNWujPdQR92trl8ujjsjloz0wM7h+4t/Zw6tp1xZ3kMN5Z3UbRT288YlhnQjBV0bIZSOCCCCDX4Yf8ABXj9jbS/2Pv2o1Xw1bfY/B/jS0Or6XarymnyBylxbIf7iNtZQfurKq84yc+A/E7JfEOpPIM9wMIzlFuPVNLezaTjJbrX5lZnk2JylLFYWq2lvvp+lj9rvg98XPD/AMefhjovjHwrqC6loOvW4ubScDawGSGR16rIjBlZTyrKRX47f8Fc/E/xI/Z7/bu8WWOmePvH2m6H4gjh1/TLe28RXkUEMc64kREWQKqrOkwCgYAAHpXuv/Bu18dbq5j+IHwxupmktbaOLxLpiM2RCWYW90o9mJt2x67j3Nan/BxZ8E/7S8BfDv4iW8P73SLybw9fuB1inUzwZ9leKYfWWvgeAcpo8H+JlXh/EJSo1U4w5kno7Shv10cfU9TNMTPH5KsXDSUdXby0Z6P/AMEIP2htW+NP7LviLR/EWs6lrmueENdYfadRu3url7W5jEkQMkhLMBIk4GTwAB0xX2/HH50qr/eOK/HD/g33+Lf/AAh37XWueE5pCtt428PyeWpPDXVo4mT8fJa5r9P/ANtT4z/8M8fsmfELxksixXWjaLP9iYn/AJe5R5Nvj/trIlfB+MnCMqXHs8DhY2WJcHFdPfsn/wCTJnpcPY9TytVJPWCafyPxf/bW/bi8dfEv9rP4hat4f8feNNL8Ptrc9rpdrp2u3drapawHyI2RI5Ao3rHvJAGS5Pevvz/ggl+0brHxg+BXjbw74k1vVte1jwvrcd3Fc6leSXdw1rdQgKu+QliqyW8vGcDeMV+XnwC/Z41L41+A/ihrFks0kPw38L/2/Ow+bcRdQRlT/wBsTcP64iNfSv8AwQR+LX/CDftvTeHpJfLtPHWgXNkFJ+Vri3xdRn67I5lH+/jvX9PeKXC2XV+CcVluChH2mEhB6JXTglLprrFfifG5Lj6scxhVqN8s2+umv/BP2g3xxHdMwjiX5pHPRFHJP4Dmv55vjd+238SPif8AGPxd4h03x948sLDXNYu7yxsrLxBeQw28DzMYoo0SQKoCFVAUCv2x/wCCinxcPwP/AGHfid4gjk8q7XRJdPtGBwy3F2RaxkfRpg3/AAGvxd/4JrfA5fj5+278OfDckIm02HUl1XUFIyptbNTcOp9nMap/20Ffk/0c8tw2BybMuI8bFOMFZXSekE5y382ke5xZWqTxNHC03q9dD90f2YPh3qXwq/Z28D+HNav9Q1XXNL0a2j1O7vbmS5uJ7tkDzlpHJZv3jOBk9ABwBivin/gqL/wWOuvgX4r1D4b/AAnks5PFNgTBrevyxrcRaRJ3t7dGyjzr/Gzgqh+XazZ2/XP7d37QVx+zF+yT4+8dWrKNV0vTzHprOM4vZ3WCBsd9skitjuFNfgP8C/hRqn7Rnx48K+DbOad9U8ZazBYG5fMjq00g8yZu7FVLuSeuDXl+CfAuCz/E4zi3PoqVGnJtRfwuXxNtdVFNWXV77HRxJmdXCxp4HDP3pLfrbbfzOr8N+AvjV+3V4pvLrT7P4gfFDUoW23d08k15HbseQryyN5cfXIXI46DFReJPAvxm/Ya8XWU+oWfj/wCGOrSEmzuVkmsVuCvJEcqHy5ccEgFhgjIr+gr4OfA3RfgB8NNJ8G+E9HfTNA0OEQW8KQkM5/ilkOPnldssznksSaw/2rv2aLH9qX9nvxR4I1rTWmh1aykNnK8JZrC8VCYLhDjhkk2nI6ruU8MQfcwv0jKFTNo4FZfBYKUlHb3lFu3Na3L5uPbqcsuEpKg6rrP2lr+Vz5F/4JMf8FXL79qLVk+G/wARpLX/AITqO3efS9WjjWFNfijXMkciLhVuEUF8qAsiqxwrKd33tFzKv1r+aD4S/EvVPgp8TvDfjDT2e11XwrqMGpRgHo8Lhih9iAVI7gkd6/pa0rUIdZtLW8teba8jS4hyeqOAy/oRXw/0geAcFkOaUMwyyKhRxN3yrZSja9uyaadtr3PS4VzSriqEqNZ3lDr1t/SP5+v2qP2lPiTpX7U3xOs7P4jeP7Ozs/F+sQW9vB4jvYooI0vplREVZAFVVAAAAAAAFe7fGD/gq34w+Hv7DHwp+HPhHxNqS+LtQ0KS+8VeJZbp59Qt0ku7jyraOZyWWVowrvJneqmMKQSSPlX9rcf8ZbfFY/8AU6a1/wCnCevub/gh1/wT28O/FLQL34weOtKtdctba+fTvDmm3sQltWkiA867kjYbZNrERoGBUMjnBIXH9Ocbf6u5VkGHznOKKnChyyjFRV51HG0Vro9766aXPjcA8ZWxk8PhpNOV1fXRX1Pin9lTxvrVz+1v8Nr6bWtYlurzxZphe4kvZWkuN95EGy5bLbgTnJOc981/RhL/AK1v941l6t4S0nX7KO2v9K0y+t4ZUmiintI5EidCGRlBGFZWAIIwQQCK0s5r+NPFbxKw/F9bD1qGG9h7JSVrppptNdFtY/QMjyieAjOMp83M0+oUUUV+SHvH5K/8HGX/ACXr4Y/9i3df+lZqT/g3OuobX4xfFTzZoot2g2QG9wuf9Jb1qP8A4OMv+S9fDH/sW7r/ANKzXwT4D+Fnif4q3VzbeF/DXiDxJcWaCW4j0rTprx4EY4DOI1YqCRgE9SK/0J4LyClnfhXQyutVVKNSDTm7WVql+rXbuflOYYuWGz2daMeZp7fI/pD8X/E/wz8PdEm1LXvEnh/RNOt1LSXN/qMNvEoH+07AfhX4vf8ABZD9u3Qf2yPjZodh4NmkvPB/gW2mgt9QaNoxqdzOyGaVVbDCICKNULAE7XbGGFfOut/stfErw9bNd6h8NPH9nBECWnn8N3iJGB6sY8AUfAT4t2HwR+IkGuah4H8JeOvsEgxp3iOO4kto3B5JjjlRS3tKrgf3aw8OfBnKuGcXLOcLiPrleMWopOKSb36vV7XbstTTNuIa+NgsPKHs4u13qfot/wAECP2NtW8KtrHxm8Q2c1jBq+nnR/DUUylXuYXkR7i7APOwmNI0P8Q8w9NpP6Ypw3+favmb/gn9/wAFPfBP7dNjJo9rZP4R8a6XbiWfQLiVZEmhXAMtpKAokjXIBUqrIMfKV+avphPvflX8k+LmZZ1jeJ61fPKLo1NEobpQXw2ezW7ut3c+6yCjh6WDjDDy5o9+76n4N/8ABYn/AJSXfFT/AK+NO/8ATTZV9x/8G63/ACa148/7G4/+kdvXw5/wWJ/5SXfFP/r407/002Vfcf8Awbrf8mtePP8Asbj/AOkdvX9Q+Kn/ACaeh/gw/wCUD4rJ/wDkfT9ZH6B0UUV/CR+mhRRRQAUUUUAFFFFABRRRQBh/Ejxknw4+G/iTxHJCbiPw7pV3qrwg480QQPKV/HZj8a/nA+MPxg8SftE/ETUfF3jLUrjWtc1eRppZZ23LCCciKJTxHEn3VRcAAAV/RD+1F/ya98Tv+xP1j/0gnr+buD/Ur9K/sz6KeBw8sNjsVKCc+aMb21Ss3Zdlc/POOa01OlBPSzf4n6of8G937SviTxdD40+Gesahdanovh2xh1jRzcymRtOVpfJlgUnJ8slo3VeikPj71eCf8F9v+T/1/wCxU07/ANGXNdx/wbnH/jI34k/9itF/6WxVw3/BfY5/b9j/AOxU03/0Zc19Vk+BoYXxgxKw8VFSoczsrK75Lu3n1OTE1ZT4eg5u75rfcfFecY/Kv3f/AOCyBz/wTT+JH+5pn/pxtK/CBj93/eH86/d7/gsh/wAo1PiN/wBc9M/9OVpW3jZ/yU/Dv/X/AP8Ab6Rjwz/uWL/w/pI/CNfu1+tn/Bud/wAm+/Er/sZ4f/SNK/JMdK/Wz/g3O/5N9+JX/Yzw/wDpGlfQfSI/5InEf4of+lI4+E/+RlH0Z8A/8FLv+UgXxi/7Ge5/mKz/APgn3/yfX8H/APsb9O/9HrWh/wAFLv8AlIF8Yv8AsZ7n+YrP/wCCff8AyfX8H/8Asb9O/wDR619phf8AkjY/9gy/9No4qn/Iyf8Aj/U/oeXpRQvSiv8AK8/bRv8AFX4k6z/ynpf/ALK4v/pWK/bb+KvxJ1n/AJT0v/2Vxf8A0rFf0Z9Hv+Lmv/YPL82fJ8Uf8w/+NH7cN95vqaKG+831NFfzmfWBRRRQAUUUUAeB/wDBUn/lHd8Xv+wC3/o6KvwR8EeHf+Ew8baLo5m+zDV9QtrEzBN5i82VY92MjON2cZGcV+93/BUn/lHd8Xv+wC3/AKOir8I/gt/yWrwb/wBh/T//AEqir+4/oy1JU+FMdUho1Uk16qnE/N+Mop46in2X/pTP0mk/4Nu7CG4ZT8Y73Ctg/wDFMLn/ANKa7L4cf8G8nwx8O6kk3ijxp4y8Vwxtn7NBHDpcMvsxXzJMf7rqfev0Evf+P6b/AHzUdfz1jfHLjatGVJ41xX92MU/vUbn1VPhvLotSVNXOT+DnwO8Ifs9+CYfDngnw7pvhrRYW3/Z7OPBlfGDJI5y8jnu7sW96+af+C6ks6f8ABOzXlh3eXLrelpPg/wAH2jI/8fCV9hV45+398Bbj9pj9jjx/4N0+LztW1DTvtOmR/wDPW7t5EuIU/wCBvEE/4HXzfA+dunxZg8zzGbl+9g5Sk7t3krttnZmOGvgalGire67H4pf8E3IraX9vz4OrdbfJ/wCEps8bsffDEx/+PhRX9CAOa/mZ8C+M9S+G3jXR/EGls1rrHh2/h1C1MikeVPDIsi7h7MoBH1Ff0Ofsn/tWeFf2yPhBY+L/AArdxyeaijUtO3g3Oj3OPnglXqMHO1jw64YEg1/Q30pMhxdSrg83oxcqSi4NrVRd7pvte/4HyfA+IpqFTDvSV7npVfmH/wAHHqW/kfB1vk+2b9YH+15eLP8ATdX6cz3EdrayzzSRw28CGSWWRwkcSAZLMx4UAckngV+HH/BYj9sbSf2t/wBqOGLwxeLqHhHwPZnSdPvI2zFqE7OXubiP1RmCIrfxLCGHDCvzz6OeR4vF8W08bTi/Z0YycpdPei4pX7u97b6HrcXYmEMA6b3k1ZHZf8G/KzH9uXWWj/1K+Db0y/8AgVZ7f1r9L/8Agop8ET+0P+xL8RPDUMH2jUG0l9R09QMsbq1IuYgvuzRbP+Bmvjv/AIN4f2f7rSPDvjr4o31vJDb60Y/DukM648+OJ/NupF9V8wQoCP4o3Hav0vidQy7lDL3Ujhh3H41v42cTRpeIax+DfvYb2d2v5o+81+Nn9xPDmDcso9lU+3zfifzmfsW/GP8A4UR+1X8OfGPm+Vb6Prls902f+XWRvKnB9jDJJX6X/wDBw98Yf+ER/Z18JeA7eYfaPF+tte3Kq33rWyQHH0M00J+sfrX5pftr/BL/AIZ5/as+InghY2htdH1ef7CDxm0l/fW5B/64yR/iDXYf8FCP2qb79rrx54Aul3XEuheCNI0tkBy0t88Iluj/ALzTSbf+ACv6kznhehnnEOT8T07OFOEptvquVShf0cr/ACPicPjZYXCYjA/abSX5M++/+CEv7NVncfsR+NNU1q1DRfFi9uNMkLDl9Ohie1xn0Mkt1+QPpX5rfBXxHffse/tj+Hb6+Z4rz4deLEg1EdykFyYbhfo0YkHuGr98v2YPg7H+z1+zn4H8Dxqobwvo1tZTkD79wEDTv/wKZpG/Gvxq/wCC13wb/wCFVft++KriOHy7HxtaW/iGDH3WaVDFOfqZ4ZSf973r8t8J+Mo59xdneAru9PFKTjftD3LfODX3HuZ3l/1XAYerDeFr/NX/ADPsr/g4h+LI8Ofs6+CvBdtOrSeLNdfUJdp/1ltZxcfgZLiIj3T6V5r/AMG63wVF94q+IfxGuIfl0+2g8OWEh/vysLi4x7hY7cfRzXyf+31+1XP+1FP8KZZpmkPhXwBp2m3RLfevvnNy5922x5PX5a/Wz/gkd8ED8D/2A/AttND5OoeJon8SXuRhi92Q8WfpbiAfhXLxjhXwb4XRyV6VcRNxfezk5P8A8lSXzsaZfL+0M6+sr4YJflp+JxX/AAXfeaL/AIJ66gsTNtfxHpay46FPMc8+24L+OK/Gf4eeCde+I/jnS9B8L6ffap4i1SbybC0s+LieTazYTkc4BPUdK/e3/gpb8Ebr9ob9h34ieGtNha41b7AupWESjLSz2kiXKoo/vOImQe7ivwf+BXxYvPgb8YvCPjfTV8688K6rbarFEx2icROGaMnsHXKn/er6L6N+Yc/B2JoYWzrU5zdntdxXLfbR2/M4eMKX/ChCVT4WketD/gnP+00D/wAkz+I3/fz/AO20v/Duj9psj/kmfxG/7+f/AG2v3I+A3x68K/tNfDDT/GHgvU49V0TUkByrfvbOTHzQTr1jlQ8Mpx6jIIJ7BVLnC9+nvX5vjPpIZ/hK8sNicupRnF2cWpJprpue1T4PwlSKnCtJp9dD+fa4/wCCX/7RD20ir8IPGfzIQB5Ef/xdfvV8INNuNE+FXg+xvIZLe8sdEsbe4if70UqW8aup9wwIP0qHUvjH4V0r4p6d4Hm1/Tf+Ew1SCW7t9GSYSXnkxLueV0GTGmOhfG48DNdNDzKn1r878TPFDNuKqeFo5nho0eRuUbKS5lKyv73TTdHrZPktDAObozcr6PbS1+3qfzhftbc/tZ/Fb/sdNa/9L56/bD/gkfp8On/8E3/hSsSKnm6fdTPgfeZr+5JP51+KH7WvH7WvxW/7HTWv/S+ev20/4JO/8o4vhL/2Cp//AEtua/oD6R0muDcCl/PD/wBNs+U4TV8yq+j/ADPogUUZor+HT9JCiiigD8lf+DjL/kvXwx/7Fu6/9KzU3/BuM7L8Zfipgn/kBWXT/r5eof8Ag4y/5L18Mf8AsW7r/wBKzU//AAbiI0nxl+Km0Z/4kNj/AOlL1/ccYyfglaO/s/8A3Kj820/1ld+//tp+siXEqHcskisDnIYg18O/8Ft/2NvCvxM/Ze1/4mWul2dh438FiK9fULaIRyanatLHFLDOVH7zar70ZsspjwCFYivuCdvskTPKVjjXqznaB+Jr87v+C0f/AAUR8FxfAXVvhL4P1zTvEniTxRJFDq8unzrcW2kWkcqysrSrlGmkaNU2KSVUuW2naG/nTwfweey4owksqU1aa52r8vJf3uZ7Wt362Prc+nhvqVT21ttNt+h+YP7P/wAX9S/Z/wDjd4V8a6PM8OoeGtShvV2tt81AwEsTeqyRl0YdCGNf0oM0byloW3Qt80bf3lJyD+Vfzbfs1/BPUv2jPj74R8EaTC8t14j1OG2cqN3kQbg08x/2Y4lkcn0U1/SUwRZWEa7YxgIv90dh+FfsX0rHhfreAUbe25Z378t42v5Xvb5nz/AsZqnVb+HT7+p+C/8AwWI/5SW/FL/r403/ANNNlX3J/wAG63/JrXjz/sbj/wCkdvXw3/wWI/5SW/FL/r403/002Vfcn/But/ya148/7G4/+kdvX2nip/yaeh/gw/5QPPyf/kfT9ZH6B0UUV/CJ+mBRRRQAUUUUAFFFFABRRRQBxP7TFvJffs0/EmCGNpZp/CWrxxooyzsbGYAAepPFfzawPmBCO6g1/T8VB4ZVZTwysu5WHcEdD9DX5sftC/8ABvPYeLviTear8OfHFr4X0LUZ2mbR9UsHuhpu45KwSo4LRg/dR1BA4LnGa/pz6PPiNkvDsMVg84qeyVRxlGVm1ommtL2ex8bxZk+IxjhUoK/LdNHnH/BudEzftE/EptrbR4YhBOOATeR4598H8jXC/wDBfX/k/wBj/wCxU03/ANGXNfpl+wR+wJ4X/YI+HF9pej3lxrmva7JHNrOs3EQhe8aMMI40jBPlxJufC7mJLsSTkAfmx/wcB6Jdab+3Rpt9NBIlnqfhOyNrKV+Wby5rlHAPqpxke49RX3fA/F2B4g8VK+PwD/dui4xb0cuXlu0nr0uuttzzc0wFXC5FGjU3Uk35XPiBj93/AHh/Ov3e/wCCyH/KNT4jf9c9M/8ATlaV+FWi6NdeJdb0/TbGCS6vtSuorW2gjGXmlkcIiAdyWYAD1Nfuv/wWTQxf8E1/iQrfeVdNB5zyNStK+j8bJL/Wjh2PX2//ALfTOHhlP6li/wDD+kj8IR0r9bP+Dc7/AJN9+JX/AGM8P/pGlfkmOlfrZ/wbnH/jH34lf9jPD/6Rx19H9Ij/AJInEf4of+lI4uE/+RlH0Z8A/wDBS7/lIF8Yv+xnuf5is/8A4J9/8n1/B/8A7G/Tv/R61of8FL/+Ugfxi/7Ge5/mKz/+Cff/ACfX8H/+xv07/wBHrX2eF/5I2P8A2DL/ANNo4an/ACMn/j/U/oeXpRTc4H0GT7U2zvItSsxcW00NzbtwJYXEiH/gQyP1r/LONGcouai7LrbQ/a+ZJ2Y7+KvxJ1k5/wCC9En/AGVxf/SwV+2wG5xjua/EUXEfiH/gvF5liy3UcnxcJVozuVgl4dxB9Btb8q/on6PcXz5tK2iw8vzZ8rxT/wAw9/50ft4Tlj9TRQTmiv5yPrAooooAKKKKAPC/+Cl+i3viT9gL4sWOm2d3qF9daGyQ21rC000zedGcKigsxwDwBX4i/Bv4DePLb4xeD5pfAvjaGKPXbCSR30G7VY1FzGSSTHgAAZJNf0WqShyuR7inm5lYf6yT3G41+1eHPjFW4TymvldPDKqqsnK7k1a8VHaz7XPnc24fjjq8K8ptcvS3ncddtuu5SP75/nUdAor8XlK7ufRLYKQcHjqO9LRUgfm7/wAFPf8AgjRqHxV8Yal8SPhBb2jaxqjtda34aeRbdb2Y8vc2rthBI55eNiAzEspydp/Nq6sviN+yj45aaSPxt8N/ElqPLaQi50m5C+m75Sy/iVNf0i4pLiFL6DybiOO4hzny5VDqD9DxX9GcGfSIzLKsBHLM2oLFUoqybdpWWybakpW6XXqfJZhwnRrVPa0JunLy2+R/OR40/ah+Kv7Q1gui674+8eeMrWYhP7Om1S4vI5j2BiBIc+mQa+h/2I/+CL/xI/aF8RWOpeOtN1L4e+BVcSXEl/F5Oq6gnXZb27fOm4ceZKFAByA54r9rbDTbXSX3WdrbWbEYJt4FiJ7dVAqU7iect6kmvUzr6SuJeElheH8DDC81/eum15pRjGN+zMMPwfD2iqYqq526f8OY3w9+Hui/CjwNpPhnw3ptvpOg6HbJaWNpB9yCNeg55JJySxyWJJJJJNbQ6UDpRX8y4jEVK9SVatJylJttvVtvds+yjFRioxVktD8ov+C+P7Lmuan+0D4R8deG/D2s6yniPR207Uv7NsJbpo7i1cbHcRqdu6GVFBPXyT6V89/8E4P2O/FHxI/bd+Htrr3hHxLpuhabqY1nUJ7/AEme2gMdopuAhZ0C/PJGiYzzu79K/eGOR4j8rMueuD1pzzySLhpHYZ7mv6Ayb6QWPy/hlcPxwylKNNwVRzd1e6Ttb7Kemp8viOFaVXGPF8+7TtYaWLsWPVjk1+dP/BwV+zhq3xH8FfDnxl4f0XVNZ1HRby50W9j0+0e5mFvMgmiYqgLbFeGQZ6Ayj1r9FlGBRHI0bcMy/Q1+T8C8XV+Gs6o5zQjzune8W7cyas1f5nuZlgIY3Dyw83a/Xsfzp/Bn9j3x58WPi74W8LzeDfGGn2/iDVbawnu7jRbmGG1ikkVZJXdkCqFQsxJI6V/RRYWFro+n29nZwrb2dnEtvbxKOIo0UKqj6KAPwqw1y7qcvIc9cnrUYGBX1nih4r4rjKeH9rRVKNHmslLmTbtrqlbY4clyOnlylyy5nLrawBisgYZ4OR7V+Vf/AAU0/wCCMOvR+ONU+IHwZ0v+19K1aV7zU/C9uQt1YTMcu9mnAkiYknylO9CSFDLgL+qlIM/5NfO8B+IGacKY765lzTUlaUX8Ml2fZro0dWaZXQx9L2VZej6o/m08M+PPiB+yz4yuZdJ1fxh8O9eU+XcLFNPpdwcfwyJ8pYD0YEV3k/8AwUE/aD+KFv8A2SvxV+I2recPLEGnX0iyy9sf6OAzE/jX9BWoWcOrqq3kEN2qDCieMSbfpuBo0yxg0Yk2kENpuGD5ESx5/wC+QK/esR9JLLMRavismhOsvtOUXr6unzfcz5iHB9WHuwxDUe2v+Z+VX/BF39h34teCP2o7f4oeL/C2reHvD6aZewtca4xgv7+aeMKpWF/3xGeS7gDjgk8V+rcfyyrn1oxz/FSFcn+KvwfjzjrE8VZp/aWJpxp2SjGMb2SV7bt33309EfUZXlsMFQ9jBt7u77n89n7VfwN8c6j+1R8ULq28EeMrm2ufGGsSwzQ6HdSRzI19OVZWEeGUgggjgg1+y3/BLfRL7w3/AME9vhXY6lZXmnX1tpk6zW11C0M0JN5cHDIwDKcEHkdDX0ALqQDAkkx6ZNNfc5yTlvfvX2PiH4yVeKsnoZVUwqpqk4vmUr3tHl2stzz8pyCOCxMsQpt819LdwHSigdKK/FD6EKKKKAPyv/4OCvhr4k8c/G74b3Gh+HfEGtwW/h65SaTT9NmuliY3RIVjGpAJHODXwDb/AAP+IlmW8nwT4+hZuGMeh3qFh74Sv6UIpnh+6zL9D1pTdy5/1sn51/SHBv0h6+Q5LQyVYGNSNJNXc7Xu29rabnyOYcJwxWJlifauLl5bH82bfAz4lasPs7eCfiNdeZx5R0S+k3+23Yc16j8EP+CU3x4+OOoQx2Hw91bw9YSHDaj4hjOlW0S/3sSASuB6Rox9q/fo3UjD/WSfnTSNx55+tezjPpS5i6ThgcBTpyfVtyt8rK/3nPT4Jo8ydSrKS9D5l/4J2/8ABMrwr+wboNxqBul8TePtWg8i/wBbaHy44IiQTb2qHJSMkAsxO+TAzgAKPpoH5qB0pBzX84cQcQ5hnWOnmOZ1HUqy3b7dEl0S6JH12FwtLDU1SoqyR+HX/BW74QeMPEv/AAUX+Jt/pnhHxVqdjcT6eYrmz0e4nhlA0uzU7XRCpwwIODwQR2r7V/4N/wDwZrXgf9mXxvb65o2raLcT+KjLHFqFlJaySJ9kgG4LIoJGQRkccV95xzyRjaskir2AamvK8p+Zmb681+rcT+NFXOeFocMTwqhGKprn5m37lulutu+h4mD4dhQxzxvO3dvS3cKKBwKK/Dz6MKKKKACiiigAooooAKKKKACjGaKKADpXl/7VH7Hfw/8A2zfA0GhePNHkvEsZGmsL21l+z32muwAZoZQDgMANysGRtq5UkAj1Ciu7LczxeX4mOMwNR06kdVKLs0Z1aUKsHTqK6fRny7+y1/wSF+Dv7KPxAt/FelWuveI/EVi2+wu9du0nXTnxjfFHHGiCQDo7BiOq7TzWh/wV18OX3ij/AIJw/FC30+3kup7eztb140GWEMF7bzSvj0WNHc+ymvpKo7i2ju7eSGaOOaKZGjkjkQOkisCGVgeCpBIIPBBNfTU+Os0rZ3hs7zSrKvOjOMlzPpGSlZdFe3bd3Zxyy2jHDTw9CKipJrTzVj+YYMCOK/Xv/g3c8NX2nfsveONUnt5I7HVvFO20kYcT+TaxK5X1AZtufUMOxr0TxV/wQ2/Z78UeNpNaXRPEukxTS+c+k6brBh00nOSoQo0iKf7qSKB0UAV9UfD/AMA6F8KPBGl+G/DWk2eiaFo8It7OytY9kUCDnA7kkkksSSxJJJJJr988X/HLJuIuH/7JyuE+ao4uTkkuXld7bu7bttofKZDwziMJi/b1mrJO1utz8B/+CmHH/BQT4xf9jPc/zFZ//BPkbv26/g//ANjfp3/o9a6z/grX8O9W+Hv/AAUI+JH9qWslvH4g1H+29PlK/Jd206qyuh74YMh9GRh2qn/wSx+GOrfFL9vv4aQ6TbSzroerxa5qEqqStpa2x8x5HPYEhUGerSKO9f0th8ZQjwPGu5rk+rJ3vp/Dtv66HyFSnJ5o4W15/wBT9uv2svgvqH7RH7NXjTwNpWtN4d1DxRprWdvqA3bYW3qxV9vzeW4Uxvt52SNgHofx/wBV/YW/aw/4J/6ncap4WtfFkFlGS8uoeCNQe+tZQP4pbeP59v8A11hx+dfuITmhTsbI4b1FfwZwD4qY7hihUwMKFOvh6kryhON76Jb+iW6a8j9QzTJKeMmqjk4yWzTPw71b/gs9+0l4i8KSeE1160h1S4U2z31loKQ60c8EKVG1JO25I1cHoQea+kP+CNf/AATE8UfD74iQ/GH4l6Xd6HdWcMn/AAjukXylb5pZlZHvLhG+aPEbMEVvnJcsQoVd36ZCJRem5VEW6bIMwUeYc/7XX9aCSfWvqeIPGujVyqtlfD+XQwarq1SUWryT3StFWve3ocOE4dlGtGtiqrqcuyfQcKKBwKK/Az6gKKKKACiiigAooooAKKKKACiiigAooooAKKKKACiiigAooooAKKKKACiiigAooooAKKKKACiiigAooooAKKKKACiiigAooooAKKKKACiiigAooooAKKKKACiiigAooooAKKKKACiiigAooooAKKKKACiiigAooooA4f43fs3+A/2k9Ch03x54S0bxRaWrFrcXsR822Jxu8uVSJI84GdjDOBnpR8Dv2Z/h9+zRodxp/gHwjo/hW3vCrXJs4iZrornb5krlpJMZOAzHGeMV3FFeos8zBYP+z/bz9j/JzPl/8Bvb8DH6vS5/a8q5u9tfvAUUUV5ZsFFFFABRRRQAUUUUAFFFFABRRRQAUUUUAFFFFABRRRQAUUUUAFFFFABRRRQAUUUUAFFFFABRRRQAUUUUAFFFFABRRRQAUUUUAFFFFABRRRQAUUUUAFFFFABRRRQAUUUUAFFFFABRRRQAUUUUAFFFFABRRRQAUUUUAFFFFABRRRQAUUUUAFFFFABRRRQAUUUUAFFFFABRRRQAUUUUAFFFFABRRRQAUUUUAFFFFABRRRQAUUUUAFFFFABRRRQAUUUUAFFFFABRRRQAUUUUAFFFFABRRRQAUUUUAFFFFABRRRQAUUUUAFFFFABRRRQAUUUUAf/Z;" parent="1" vertex="1">
          <mxGeometry x="722" y="511.71000000000004" width="38.67" height="12.29" as="geometry" />
        </mxCell>
        <mxCell id="D1S1ImU1hM3uGuvjBTUR-86" value="" style="shape=image;html=1;verticalAlign=top;verticalLabelPosition=bottom;labelBackgroundColor=#ffffff;imageAspect=0;aspect=fixed;image=https://cdn2.iconfinder.com/data/icons/font-awesome/1792/cubes-128.png;fontSize=6;fontColor=#000000;fillColor=none;gradientColor=#FFFFFF;gradientDirection=radial;" parent="1" vertex="1">
          <mxGeometry x="748" y="577.5" width="28" height="28" as="geometry" />
        </mxCell>
        <mxCell id="D1S1ImU1hM3uGuvjBTUR-87" value="&lt;div&gt;&lt;b&gt;Multidimensional&lt;/b&gt;&lt;/div&gt;&lt;div&gt;&lt;b&gt;Analysis&lt;br&gt;&lt;/b&gt;&lt;/div&gt;" style="text;html=1;align=center;verticalAlign=middle;resizable=0;points=[];autosize=1;strokeColor=none;fillColor=none;fontSize=6;fontColor=#000000;" parent="1" vertex="1">
          <mxGeometry x="725" y="597" width="70" height="30" as="geometry" />
        </mxCell>
        <mxCell id="D1S1ImU1hM3uGuvjBTUR-88" value="" style="aspect=fixed;html=1;points=[];align=center;image;fontSize=12;image=img/lib/azure2/ai_machine_learning/Cognitive_Services.svg;labelBackgroundColor=#FFCE9F;fontColor=#000000;fillColor=none;gradientColor=#FFFFFF;gradientDirection=radial;" parent="1" vertex="1">
          <mxGeometry x="750.13" y="692" width="29.75" height="21" as="geometry" />
        </mxCell>
        <mxCell id="D1S1ImU1hM3uGuvjBTUR-89" value="&lt;div&gt;&lt;b&gt;Artificial&lt;/b&gt;&lt;/div&gt;&lt;div&gt;&lt;b&gt;Intelligence&lt;br&gt;&lt;/b&gt;&lt;/div&gt;" style="text;html=1;align=center;verticalAlign=middle;resizable=0;points=[];autosize=1;strokeColor=none;fillColor=none;fontSize=6;fontColor=#000000;" parent="1" vertex="1">
          <mxGeometry x="733" y="707" width="60" height="30" as="geometry" />
        </mxCell>
        <mxCell id="D1S1ImU1hM3uGuvjBTUR-90" value="" style="shape=image;html=1;verticalAlign=top;verticalLabelPosition=bottom;labelBackgroundColor=#ffffff;imageAspect=0;aspect=fixed;image=https://cdn4.iconfinder.com/data/icons/success-filloutline/64/brain-think-brainstorm-creative-idea-128.png;fontSize=6;fontColor=#000000;fillColor=none;gradientColor=#FFFFFF;gradientDirection=radial;" parent="1" vertex="1">
          <mxGeometry x="748" y="633.5" width="27.5" height="27.5" as="geometry" />
        </mxCell>
        <mxCell id="D1S1ImU1hM3uGuvjBTUR-91" value="&lt;div&gt;&lt;b&gt;Machine&lt;/b&gt;&lt;/div&gt;&lt;div&gt;&lt;b&gt;Learning&lt;br&gt;&lt;/b&gt;&lt;/div&gt;" style="text;html=1;align=center;verticalAlign=middle;resizable=0;points=[];autosize=1;strokeColor=none;fillColor=none;fontSize=6;fontColor=#000000;" parent="1" vertex="1">
          <mxGeometry x="737" y="654" width="50" height="30" as="geometry" />
        </mxCell>
      </root>
    </mxGraphModel>
  </diagram>
</mxfile>
